<?xml version="1.0" encoding="UTF-8"?>
<svg width="34px" height="35px" viewBox="0 0 34 35" version="1.1" xmlns="http://www.w3.org/2000/svg" xmlns:xlink="http://www.w3.org/1999/xlink">
    <!-- Generator: Sketch 49.3 (51167) - http://www.bohemiancoding.com/sketch -->
    <title>Group 29</title>
    <desc>Created with Sketch.</desc>
    <defs></defs>
    <g id="Page-1" stroke="none" stroke-width="1" fill="none" fill-rule="evenodd" stroke-linecap="round" stroke-linejoin="round">
        <g id="New-Landing-Page" transform="translate(-135.000000, -1430.000000)" stroke-width="3">
            <g id="Group-29" transform="translate(137.000000, 1432.000000)">
                <g id="Group-28" transform="translate(6.000000, 5.000000)" stroke="#2BE5B2">
                    <polyline id="Stroke-1472" points="0 17 0 22 12 22"></polyline>
                    <polyline id="Stroke-1473" points="0 5 0 0 12 0"></polyline>
                </g>
                <path d="M11.25,16 C11.25,19.1064062 8.73140625,21.625 5.625,21.625 C2.518125,21.625 0,19.1064062 0,16 C0,12.8935938 2.518125,10.375 5.625,10.375 C8.73140625,10.375 11.25,12.8935938 11.25,16 Z" id="Stroke-1469" stroke="#6F54F4"></path>
                <path d="M30,5.625 C30,8.73140625 27.4814062,11.25 24.375,11.25 C21.268125,11.25 18.75,8.73140625 18.75,5.625 C18.75,2.518125 21.268125,0 24.375,0 C27.4814062,0 30,2.518125 30,5.625 Z" id="Stroke-1470" stroke="#6F54F4"></path>
                <path d="M30,25.375 C30,28.481875 27.4814062,31 24.375,31 C21.268125,31 18.75,28.481875 18.75,25.375 C18.75,22.2685938 21.268125,19.75 24.375,19.75 C27.4814062,19.75 30,22.2685938 30,25.375 Z" id="Stroke-1471" stroke="#6F54F4"></path>
            </g>
        </g>
    </g>
</svg>