<?xml version="1.0" encoding="UTF-8"?>
<svg width="63px" height="59px" viewBox="0 0 63 59" version="1.1" xmlns="http://www.w3.org/2000/svg" xmlns:xlink="http://www.w3.org/1999/xlink">
    <!-- Generator: Sketch 49.3 (51167) - http://www.bohemiancoding.com/sketch -->
    <title>Questions icon</title>
    <desc>Created with Sketch.</desc>
    <defs></defs>
    <g id="Page-1" stroke="none" stroke-width="1" fill="none" fill-rule="evenodd">
        <g id="Support-Page" transform="translate(-228.000000, -858.000000)">
            <g id="Questions-icon" transform="translate(230.000000, 860.000000)">
                <path d="M58.6666667,22 C58.6666667,31.2326667 52.97875,39.1370833 44.91575,42.4004167 C42.36925,43.4316667 22.91575,55 22.91575,55 L22.91575,44 L22,44 C9.84958333,44 0,34.1504167 0,22 C0,9.84958333 9.84958333,0 22,0 L36.6666667,0 C48.8170833,0 58.6666667,9.84958333 58.6666667,22 Z" id="Stroke-803" stroke-opacity="0.84" stroke="#000000" stroke-width="3" stroke-linecap="round" stroke-linejoin="round"></path>
                <path d="M20.9902,22.9166667 C20.9902,24.4346667 19.7591167,25.6666667 18.2402,25.6666667 C16.7222,25.6666667 15.4902,24.4346667 15.4902,22.9166667 C15.4902,21.39775 16.7222,20.1666667 18.2402,20.1666667 C19.7591167,20.1666667 20.9902,21.39775 20.9902,22.9166667" id="Fill-804" fill-opacity="0.84" fill="#000000"></path>
                <path d="M32.0833333,22.9166667 C32.0833333,24.4346667 30.8513333,25.6666667 29.3333333,25.6666667 C27.8144167,25.6666667 26.5833333,24.4346667 26.5833333,22.9166667 C26.5833333,21.39775 27.8144167,20.1666667 29.3333333,20.1666667 C30.8513333,20.1666667 32.0833333,21.39775 32.0833333,22.9166667" id="Fill-805" fill-opacity="0.84" fill="#000000"></path>
                <path d="M43.1754583,22.9166667 C43.1754583,24.4346667 41.944375,25.6666667 40.4254583,25.6666667 C38.9065417,25.6666667 37.6754583,24.4346667 37.6754583,22.9166667 C37.6754583,21.39775 38.9065417,20.1666667 40.4254583,20.1666667 C41.944375,20.1666667 43.1754583,21.39775 43.1754583,22.9166667" id="Fill-806" fill-opacity="0.84" fill="#000000"></path>
            </g>
        </g>
    </g>
</svg>