<?xml version="1.0" encoding="UTF-8"?>
<svg width="58px" height="58px" viewBox="0 0 58 58" version="1.1" xmlns="http://www.w3.org/2000/svg" xmlns:xlink="http://www.w3.org/1999/xlink">
    <!-- Generator: Sketch 49.3 (51167) - http://www.bohemiancoding.com/sketch -->
    <title>sending icon</title>
    <desc>Created with Sketch.</desc>
    <defs></defs>
    <g id="Page-1" stroke="none" stroke-width="1" fill="none" fill-rule="evenodd" fill-opacity="0.84">
        <g id="Support-Page" transform="translate(-228.000000, -645.000000)" fill="#000000" fill-rule="nonzero">
            <g id="sending-icon" transform="translate(228.000000, 645.000000)">
                <path d="M54.5,10.1016875 C54.5,6.9401726 43.0353978,3.5 29,3.5 C14.9651665,3.5 3.5,6.94026765 3.5,10.1016875 C3.5,13.263846 14.964692,16.7042188 29,16.7042188 C43.0358722,16.7042188 54.5,13.2639411 54.5,10.1016875 Z M57.5,10.1016875 C57.5,15.8898506 44.7892806,19.7042188 29,19.7042188 C13.2112598,19.7042188 0.5,15.8897707 0.5,10.1016875 C0.5,4.31429219 13.2116549,0.5 29,0.5 C44.7888856,0.5 57.5,4.31421236 57.5,10.1016875 Z" id="Stroke-1444"></path>
                <path d="M54.5,10.4375 C54.5,9.60907288 55.1715729,8.9375 56,8.9375 C56.8284271,8.9375 57.5,9.60907288 57.5,10.4375 L57.5,29.4024688 C57.5,35.1899439 44.7888856,39.0041562 29,39.0041562 C13.2116549,39.0041562 0.5,35.1898641 0.5,29.4024688 L0.5,10.4375 C0.5,9.60907288 1.17157288,8.9375 2,8.9375 C2.82842712,8.9375 3.5,9.60907288 3.5,10.4375 L3.5,29.4024688 C3.5,32.5638886 14.9651665,36.0041562 29,36.0041562 C43.0353978,36.0041562 54.5,32.5639837 54.5,29.4024688 L54.5,10.4375 Z" id="Stroke-1445"></path>
                <path d="M54.5,29 C54.5,28.1715729 55.1715729,27.5 56,27.5 C56.8284271,27.5 57.5,28.1715729 57.5,29 L57.5,47.9649688 C57.5,53.7518662 44.7878748,57.5666562 29,57.5666562 C13.2126656,57.5666562 0.5,53.7517864 0.5,47.9649688 L0.5,29 C0.5,28.1715729 1.17157288,27.5 2,27.5 C2.82842712,27.5 3.5,28.1715729 3.5,29 L3.5,47.9649688 C3.5,51.1258616 14.9660979,54.5666562 29,54.5666562 C43.0344664,54.5666562 54.5,51.1259567 54.5,47.9649688 L54.5,29 Z" id="Stroke-1446"></path>
            </g>
        </g>
    </g>
</svg>