<?xml version="1.0" standalone="no"?>
<!DOCTYPE svg PUBLIC "-//W3C//DTD SVG 20010904//EN"
 "http://www.w3.org/TR/2001/REC-SVG-20010904/DTD/svg10.dtd">
<svg version="1.0" xmlns="http://www.w3.org/2000/svg"
 width="700.000000pt" height="700.000000pt" viewBox="0 0 700.000000 700.000000"
 preserveAspectRatio="xMidYMid meet">
<metadata>
Created by potrace 1.11, written by Peter Selinger 2001-2013
</metadata>
<g transform="translate(0.000000,700.000000) scale(0.100000,-0.100000)"
fill="#000000" stroke="none">
<path d="M3270 6994 c-518 -47 -931 -160 -1345 -369 -963 -484 -1655 -1398
-1859 -2454 -48 -244 -60 -388 -60 -666 0 -350 31 -599 114 -910 283 -1059
1065 -1938 2085 -2343 463 -184 946 -263 1468 -240 1352 60 2558 919 3071
2188 240 593 309 1277 196 1922 -205 1164 -1013 2163 -2114 2615 -294 121
-594 199 -921 239 -123 15 -538 27 -635 18z m746 -2764 c274 -478 502 -870
506 -870 3 0 320 133 704 295 383 162 699 293 702 291 3 -4 -630 -1658 -734
-1919 l-27 -67 -1641 2 -1640 3 -382 990 c-209 545 -380 992 -378 994 2 2 314
-128 694 -289 386 -163 695 -289 700 -284 6 7 321 555 987 1717 2 4 5 7 7 7 2
0 227 -391 502 -870z"/>
<path d="M3125 3963 c-213 -373 -389 -681 -391 -684 -2 -3 41 -24 94 -46 53
-22 233 -98 399 -168 l302 -128 386 163 c239 101 384 168 381 175 -4 10 -775
1356 -781 1363 -1 1 -176 -303 -390 -675z"/>
<path d="M1513 3543 c3 -4 118 -285 257 -623 139 -338 253 -616 254 -617 2 -2
1194 501 1200 508 3 2 -365 163 -817 356 -963 413 -900 386 -894 376z"/>
<path d="M4010 2894 c-839 -359 -1538 -660 -1555 -668 -27 -13 115 -15 1255
-15 l1286 -1 273 666 c150 366 272 666 270 668 -2 2 -690 -291 -1529 -650z"/>
</g>
</svg>
