<?xml version="1.0" encoding="UTF-8"?>
<svg width="662px" height="216px" viewBox="0 0 662 216" version="1.1" xmlns="http://www.w3.org/2000/svg" xmlns:xlink="http://www.w3.org/1999/xlink">
    <!-- Generator: Sketch 49.3 (51167) - http://www.bohemiancoding.com/sketch -->
    <title>Group 15</title>
    <desc>Created with Sketch.</desc>
    <defs></defs>
    <g id="Page-1" stroke="none" stroke-width="1" fill="none" fill-rule="evenodd">
        <g id="Artboard-2-Copy" transform="translate(-181.000000, -141.000000)">
            <g id="Group-15" transform="translate(181.000000, 141.000000)">
                <path d="M302.210364,136.106042 C306.717039,141.160825 313.233349,143.688179 321.75949,143.688179 C330.285631,143.688179 336.832391,141.160825 341.399966,136.106042 C345.906641,131.051258 348.159944,123.773697 348.159944,114.27314 C348.159944,104.772583 345.906641,97.4950222 341.399966,92.4402386 C336.832391,87.3854551 330.285631,84.8581012 321.75949,84.8581012 C313.233349,84.8581012 306.717039,87.3854551 302.210364,92.4402386 C297.642789,97.4950222 295.359035,104.772583 295.359035,114.27314 L295.359035,114.364491 C295.359035,123.804147 297.642789,131.051258 302.210364,136.106042 Z M331.442701,157.390837 L330.620542,157.573539 C327.758194,158.060747 324.80454,158.304348 321.75949,158.304348 C318.714439,158.304348 315.791235,158.060747 312.989789,157.573539 L312.076278,157.390837 C305.133563,155.868312 299.561205,152.579707 295.359035,147.524924 L295.359035,201.604747 L280.742867,201.604747 L280.742867,70.3332838 L295.359035,70.3332838 L295.359035,81.021357 C299.561205,76.0883755 305.072663,72.8302205 311.893576,71.2467943 L312.807086,71.0640922 C315.669434,70.5159832 318.653538,70.2419327 321.75949,70.2419327 C324.865441,70.2419327 327.879996,70.5159832 330.803244,71.0640922 C331.16865,71.1249932 331.47315,71.1858933 331.716754,71.2467943 C341.460915,73.2565275 349.073427,78.0676349 354.554518,85.6802607 C360.035608,93.2928865 362.776112,102.823751 362.776112,114.27314 C362.776112,125.783431 360.005158,135.344745 354.463167,142.957371 C348.921175,150.569997 341.247763,155.381104 331.442701,157.390837 Z M452.482846,70.0592306 L437.866678,70.0592306 L437.866678,116.556917 C437.562173,125.326662 435.46112,132.056122 431.563455,136.745499 C427.665791,141.434877 422.184783,143.77953 415.120266,143.77953 C407.812145,143.77953 402.209336,141.221726 398.311672,136.106042 C394.353107,131.051258 392.373854,123.773697 392.373854,114.27314 L392.373854,70.0592306 L377.849036,70.0592306 L377.849036,114.27314 C377.849036,123.834598 379.615139,132.117011 383.147397,139.120627 C386.740557,146.124242 391.764814,151.2703 398.220321,154.558955 C403.214204,157.055896 408.847462,158.304348 415.120266,158.304348 C421.393069,158.304348 427.026328,157.055896 432.020211,154.558955 C434.090845,153.401836 436.039648,151.940233 437.866678,150.174104 L437.866678,164.881624 C437.866678,173.225062 435.674275,179.589121 431.289402,183.973994 C426.843629,188.419767 420.479569,190.642621 412.197032,190.642621 C401.965663,190.642621 394.749002,187.323566 390.546833,180.685356 L377.392281,187.171281 C384.274095,199.22968 395.875562,205.258789 412.197032,205.258789 C424.438134,205.258789 434.212599,201.604783 441.52072,194.296663 C448.828841,186.927641 452.482846,177.122726 452.482846,164.881624 L452.482846,70.0592306 Z M528.669625,70.4246349 L507.841585,100.205078 L505.923212,97.5558976 L486.922193,70.4246349 L469.108738,70.4246349 L497.975671,111.62396 L498.889181,112.902874 L467.099015,158.304348 L484.91247,158.304348 L507.750234,125.600671 L509.668606,128.249851 L530.679348,158.304348 L548.492803,158.304348 L517.616147,114.181789 L516.702637,112.902874 L546.48308,70.4246349 L528.669625,70.4246349 Z M564.113833,158.304348 L578.638651,158.304348 L578.638651,70.2419327 L564.113833,70.2419327 L564.113833,158.304348 Z M577.177034,51.6063179 C578.821361,50.0228918 579.643512,48.0740888 579.643512,45.7598505 C579.643512,43.5065133 578.821361,41.5577103 577.177034,39.9133832 C575.593608,38.329957 573.644805,37.5382558 571.330566,37.5382558 C569.077229,37.5382558 567.158876,38.329957 565.57545,39.9133832 C563.931123,41.5577103 563.108972,43.5065133 563.108972,45.7598505 C563.108972,48.0740888 563.931123,50.0228918 565.57545,51.6063179 C567.158876,53.2506451 569.077229,54.0727964 571.330566,54.0727964 C573.644805,54.0727964 575.593608,53.2506451 577.177034,51.6063179 Z M654.003269,114.547193 C647.97407,108.822499 639.234906,105.960194 627.785517,105.960194 C620.964604,105.960194 616.062147,104.711743 613.077998,102.214801 C611.98178,101.240385 611.159628,100.083283 610.611519,98.7434613 C610.185212,97.7081442 609.972062,96.6119425 609.972062,95.4548234 C609.972062,94.2368032 610.185212,93.1101515 610.611519,92.0748344 C611.159628,90.7959133 611.98178,89.6692616 613.077998,88.6948454 C616.062147,86.1370032 620.964604,84.8581012 627.785517,84.8581012 C637.773282,84.8581012 643.558791,87.4463552 645.142217,92.6229407 L659.758386,91.5267281 C658.78397,85.4975284 655.891215,80.625521 651.080036,76.9105596 C645.355341,72.4647861 637.590579,70.2419327 627.785517,70.2419327 C616.823336,70.2419327 608.449573,72.9824369 602.663978,78.4635275 C597.852798,83.031103 595.447244,88.6948116 595.447244,95.4548234 C595.447244,102.153934 597.852798,107.787193 602.663978,112.354768 C608.449573,117.835859 616.823336,120.576363 627.785517,120.576363 C640.574729,120.576363 646.969238,124.443519 646.969238,132.177947 C646.969238,139.851473 640.574729,143.688179 627.785517,143.688179 C616.640633,143.688179 610.337473,140.673625 608.875849,134.644425 L594.259681,135.831989 C595.173196,142.165693 598.1573,147.311751 603.212084,151.270317 C609.180383,155.959694 617.371445,158.304348 627.785517,158.304348 C639.234906,158.304348 647.97407,155.442043 654.003269,149.717349 C659.058053,144.96707 661.585407,139.120661 661.585407,132.177947 C661.585407,125.174331 659.058053,119.297472 654.003269,114.547193 Z" id="pyxis" fill="#6F54F4"></path>
                <circle id="Oval-8" fill="#6F54F4" cx="107.934783" cy="107.934783" r="107.934783"></circle>
                <path d="M155.904851,145.446051 L154.766761,148.223085 L73.5771695,148.223085 L172.070106,106.061461 L155.904851,145.446051 Z M46.6263224,106.061461 L100.93948,129.307567 L62.7959552,145.446051 L46.6263224,106.061461 Z M88.5824487,107.782254 L108.901733,72.3981767 L133.637682,115.47521 L109.348214,125.751556 L84.3408748,115.167139 L88.5824487,107.782254 Z M159.689927,155.402532 L58.918715,155.402532 L56.1337514,148.223085 L35.4642857,94.4912198 L78.1995659,112.570547 L108.901733,59.1071429 L139.77899,112.878617 L183.232143,94.4912198 L162.567054,148.223085 L159.689927,155.402532 Z" id="Combined-Shape" stroke="#FFFFFF" stroke-width="0.5" fill="#FFFFFF"></path>
            </g>
        </g>
    </g>
</svg>